<svg data-v-423bf9ae="" xmlns="http://www.w3.org/2000/svg" viewBox="0 0 514 90" class="iconLeft"><!----><!----><!----><g data-v-423bf9ae="" id="d47b42e5-4dbf-4ac5-8ecf-39ff2f32085c" fill="#000000" transform="matrix(4.691164970397949,0,0,4.691164970397949,107.8475570678711,0.36356815695762634)"><path d="M0.63 8.42L0.63 8.42L0.63 8.42Q0.63 6.02 1.81 4.67L1.81 4.67L1.81 4.67Q2.99 3.32 5.21 3.32L5.21 3.32L5.21 3.32Q7.43 3.32 8.61 4.68L8.61 4.68L8.61 4.68Q9.79 6.04 9.79 8.43L9.79 8.43L9.79 8.43Q9.79 10.82 8.61 12.18L8.61 12.18L8.61 12.18Q7.63 13.31 5.93 13.49L5.93 13.49L5.93 13.49Q6.00 14.16 6.42 14.55L6.42 14.55L6.42 14.55Q6.84 14.95 7.63 14.95L7.63 14.95L7.63 14.95Q8.05 14.95 8.32 14.88L8.32 14.88L8.32 14.88Q8.59 14.81 8.62 14.96L8.62 14.96L8.76 15.56L8.76 15.56Q8.79 15.72 8.59 15.77L8.59 15.77L8.59 15.77Q7.98 15.91 7.41 15.91L7.41 15.91L7.41 15.91Q5.94 15.91 5.31 15.17L5.31 15.17L5.31 15.17Q4.68 14.44 4.61 13.51L4.61 13.51L4.61 13.51Q2.82 13.34 1.80 12.17L1.80 12.17L1.80 12.17Q0.63 10.81 0.63 8.42ZM2.03 8.43L2.03 8.43L2.03 8.43Q2.03 10.34 2.82 11.41L2.82 11.41L2.82 11.41Q3.60 12.47 5.21 12.47L5.21 12.47L5.21 12.47Q6.82 12.47 7.60 11.41L7.60 11.41L7.60 11.41Q8.39 10.34 8.39 8.43L8.39 8.43L8.39 8.43Q8.39 6.51 7.60 5.45L7.60 5.45L7.60 5.45Q6.82 4.39 5.21 4.39L5.21 4.39L5.21 4.39Q3.60 4.39 2.82 5.45L2.82 5.45L2.82 5.45Q2.03 6.51 2.03 8.43ZM11.38 10.83L11.38 10.83L11.38 6.46L11.38 6.46Q11.38 6.15 11.68 6.15L11.68 6.15L12.27 6.15L12.27 6.15Q12.58 6.15 12.58 6.46L12.58 6.46L12.58 10.50L12.58 10.50Q12.58 11.84 13.02 12.20L13.02 12.20L13.02 12.20Q13.47 12.56 14.12 12.56L14.12 12.56L14.12 12.56Q14.98 12.56 15.44 12.03L15.44 12.03L15.44 12.03Q15.90 11.50 15.90 10.21L15.90 10.21L15.90 6.46L15.90 6.46Q15.90 6.15 16.21 6.15L16.21 6.15L16.80 6.15L16.80 6.15Q17.10 6.15 17.10 6.46L17.10 6.46L17.10 13.02L17.10 13.02Q17.10 13.33 16.80 13.33L16.80 13.33L16.22 13.33L16.22 13.33Q15.91 13.33 15.91 13.02L15.91 13.02L15.91 12.48L15.89 12.48L15.89 12.48Q15.44 12.97 14.93 13.21L14.93 13.21L14.93 13.21Q14.42 13.45 13.68 13.45L13.68 13.45L13.68 13.45Q12.48 13.45 11.93 12.75L11.93 12.75L11.93 12.75Q11.38 12.04 11.38 10.83ZM18.66 9.74L18.66 9.74L18.66 9.74Q18.66 8.13 19.51 7.09L19.51 7.09L19.51 7.09Q20.36 6.04 22.00 6.04L22.00 6.04L22.00 6.04Q23.64 6.04 24.49 7.09L24.49 7.09L24.49 7.09Q25.34 8.13 25.34 9.74L25.34 9.74L25.34 9.74Q25.34 11.35 24.49 12.40L24.49 12.40L24.49 12.40Q23.64 13.45 22.00 13.45L22.00 13.45L22.00 13.45Q20.36 13.45 19.51 12.40L19.51 12.40L19.51 12.40Q18.66 11.35 18.66 9.74ZM19.93 9.74L19.93 9.74L19.93 9.74Q19.93 11.18 20.49 11.87L20.49 11.87L20.49 11.87Q21.06 12.56 22.00 12.56L22.00 12.56L22.00 12.56Q22.93 12.56 23.50 11.87L23.50 11.87L23.50 11.87Q24.07 11.18 24.07 9.74L24.07 9.74L24.07 9.74Q24.07 8.31 23.50 7.62L23.50 7.62L23.50 7.62Q22.93 6.92 22.00 6.92L22.00 6.92L22.00 6.92Q21.06 6.92 20.49 7.62L20.49 7.62L20.49 7.62Q19.93 8.31 19.93 9.74ZM27.35 7.05L26.54 7.05L26.54 7.05Q26.24 7.05 26.24 6.82L26.24 6.82L26.24 6.39L26.24 6.39Q26.24 6.15 26.54 6.15L26.54 6.15L27.35 6.15L27.35 5.54L27.35 5.54Q27.35 5.40 27.42 5.28L27.42 5.28L27.90 4.41L27.90 4.41Q28.03 4.17 28.11 4.17L28.11 4.17L28.35 4.17L28.35 4.17Q28.55 4.17 28.55 4.41L28.55 4.41L28.55 6.15L30.01 6.15L30.01 6.15Q30.32 6.15 30.32 6.39L30.32 6.39L30.32 6.82L30.32 6.82Q30.32 7.05 30.01 7.05L30.01 7.05L28.55 7.05L28.55 11.41L28.55 11.41Q28.55 12.13 28.77 12.34L28.77 12.34L28.77 12.34Q28.98 12.56 29.29 12.56L29.29 12.56L29.29 12.56Q29.52 12.56 29.84 12.42L29.84 12.42L29.84 12.42Q30.17 12.28 30.29 12.19L30.29 12.19L30.29 12.19Q30.41 12.09 30.48 12.25L30.48 12.25L30.71 12.78L30.71 12.78Q30.76 12.91 30.63 13.00L30.63 13.00L30.63 13.00Q30.36 13.15 29.85 13.30L29.85 13.30L29.85 13.30Q29.33 13.45 28.82 13.45L28.82 13.45L28.82 13.45Q28.11 13.45 27.73 12.93L27.73 12.93L27.73 12.93Q27.35 12.42 27.35 11.48L27.35 11.48L27.35 7.05ZM31.68 9.74L31.68 9.74L31.68 9.74Q31.68 8.05 32.53 7.04L32.53 7.04L32.53 7.04Q33.37 6.04 34.95 6.04L34.95 6.04L34.95 6.04Q36.26 6.04 37.13 6.96L37.13 6.96L37.13 6.96Q37.99 7.88 37.99 9.89L37.99 9.89L37.99 9.89Q37.99 10.20 37.71 10.20L37.71 10.20L32.95 10.20L32.95 10.20Q33.07 11.52 33.66 12.03L33.66 12.03L33.66 12.03Q34.25 12.55 35.01 12.55L35.01 12.55L35.01 12.55Q35.80 12.55 36.22 12.28L36.22 12.28L36.22 12.28Q36.65 12.02 36.85 11.76L36.85 11.76L36.85 11.76Q37.06 11.47 37.27 11.65L37.27 11.65L37.67 12.00L37.67 12.00Q37.83 12.13 37.67 12.37L37.67 12.37L37.67 12.37Q37.54 12.57 36.93 13.01L36.93 13.01L36.93 13.01Q36.32 13.45 35.01 13.45L35.01 13.45L35.01 13.45Q33.30 13.45 32.49 12.44L32.49 12.44L32.49 12.44Q31.68 11.44 31.68 9.74ZM32.92 9.31L32.92 9.31L36.78 9.31L36.78 9.31Q36.76 8.35 36.29 7.63L36.29 7.63L36.29 7.63Q35.83 6.91 34.92 6.91L34.92 6.91L34.92 6.91Q34.13 6.91 33.58 7.44L33.58 7.44L33.58 7.44Q33.02 7.97 32.92 9.31ZM47.78 13.33L44.77 13.33L44.77 13.33Q44.43 13.33 44.43 12.95L44.43 12.95L44.43 3.90L44.43 3.90Q44.43 3.53 44.77 3.53L44.77 3.53L47.43 3.53L47.43 3.53Q49.76 3.53 50.57 4.28L50.57 4.28L50.57 4.28Q51.37 5.03 51.37 6.09L51.37 6.09L51.37 6.09Q51.37 6.93 50.70 7.52L50.70 7.52L50.70 7.52Q50.03 8.10 49.40 8.20L49.40 8.20L49.40 8.22L49.40 8.22Q50.09 8.29 50.94 8.91L50.94 8.91L50.94 8.91Q51.80 9.54 51.80 10.61L51.80 10.61L51.80 10.61Q51.80 11.77 50.94 12.55L50.94 12.55L50.94 12.55Q50.08 13.33 47.78 13.33L47.78 13.33ZM45.74 8.79L45.74 12.21L47.56 12.21L47.56 12.21Q49.03 12.21 49.71 11.85L49.71 11.85L49.71 11.85Q50.39 11.48 50.39 10.57L50.39 10.57L50.39 10.57Q50.39 9.72 49.70 9.26L49.70 9.26L49.70 9.26Q49.01 8.79 47.56 8.79L47.56 8.79L45.74 8.79ZM45.74 4.65L45.74 7.81L47.46 7.81L47.46 7.81Q48.60 7.81 49.32 7.32L49.32 7.32L49.32 7.32Q50.04 6.83 50.04 6.09L50.04 6.09L50.04 6.09Q50.04 5.39 49.50 5.02L49.50 5.02L49.50 5.02Q48.96 4.65 47.46 4.65L47.46 4.65L45.74 4.65ZM53.50 10.83L53.50 10.83L53.50 6.46L53.50 6.46Q53.50 6.15 53.81 6.15L53.81 6.15L54.40 6.15L54.40 6.15Q54.71 6.15 54.71 6.46L54.71 6.46L54.71 10.50L54.71 10.50Q54.71 11.84 55.15 12.20L55.15 12.20L55.15 12.20Q55.60 12.56 56.25 12.56L56.25 12.56L56.25 12.56Q57.11 12.56 57.57 12.03L57.57 12.03L57.57 12.03Q58.03 11.50 58.03 10.21L58.03 10.21L58.03 6.46L58.03 6.46Q58.03 6.15 58.34 6.15L58.34 6.15L58.93 6.15L58.93 6.15Q59.23 6.15 59.23 6.46L59.23 6.46L59.23 13.02L59.23 13.02Q59.23 13.33 58.93 13.33L58.93 13.33L58.35 13.33L58.35 13.33Q58.04 13.33 58.04 13.02L58.04 13.02L58.04 12.48L58.02 12.48L58.02 12.48Q57.57 12.97 57.06 13.21L57.06 13.21L57.06 13.21Q56.55 13.45 55.81 13.45L55.81 13.45L55.81 13.45Q54.61 13.45 54.06 12.75L54.06 12.75L54.06 12.75Q53.50 12.04 53.50 10.83ZM62.07 13.33L61.48 13.33L61.48 13.33Q61.17 13.33 61.17 13.02L61.17 13.02L61.17 6.46L61.17 6.46Q61.17 6.15 61.48 6.15L61.48 6.15L62.07 6.15L62.07 6.15Q62.38 6.15 62.38 6.46L62.38 6.46L62.38 13.02L62.38 13.02Q62.38 13.33 62.07 13.33L62.07 13.33ZM62.07 4.85L61.48 4.85L61.48 4.85Q61.17 4.85 61.17 4.55L61.17 4.55L61.17 3.96L61.17 3.96Q61.17 3.65 61.48 3.65L61.48 3.65L62.07 3.65L62.07 3.65Q62.38 3.65 62.38 3.96L62.38 3.96L62.38 4.55L62.38 4.55Q62.38 4.85 62.07 4.85L62.07 4.85ZM65.21 13.33L64.63 13.33L64.63 13.33Q64.32 13.33 64.32 13.02L64.32 13.02L64.32 4.49L64.32 4.49Q64.32 4.35 64.39 4.23L64.39 4.23L64.87 3.36L64.87 3.36Q65.00 3.12 65.08 3.12L65.08 3.12L65.32 3.12L65.32 3.12Q65.52 3.12 65.52 3.36L65.52 3.36L65.52 13.02L65.52 13.02Q65.52 13.33 65.21 13.33L65.21 13.33ZM67.07 9.74L67.07 9.74L67.07 9.74Q67.07 8.27 67.79 7.15L67.79 7.15L67.79 7.15Q68.50 6.04 69.86 6.04L69.86 6.04L69.86 6.04Q70.65 6.04 71.12 6.30L71.12 6.30L71.12 6.30Q71.59 6.56 71.97 7.01L71.97 7.01L71.98 7.01L71.98 7.01Q71.97 6.80 71.97 6.59L71.97 6.59L71.97 3.55L71.97 3.55Q71.97 3.24 72.28 3.24L72.28 3.24L72.86 3.24L72.86 3.24Q73.17 3.24 73.17 3.55L73.17 3.55L73.17 13.02L73.17 13.02Q73.17 13.33 72.86 13.33L72.86 13.33L72.29 13.33L72.29 13.33Q72.04 13.33 72.02 13.02L72.02 13.02L71.98 12.48L71.97 12.48L71.97 12.48Q71.59 12.93 71.12 13.19L71.12 13.19L71.12 13.19Q70.65 13.45 69.86 13.45L69.86 13.45L69.86 13.45Q68.50 13.45 67.79 12.33L67.79 12.33L67.79 12.33Q67.07 11.21 67.07 9.74ZM68.35 9.74L68.35 9.74L68.35 9.74Q68.35 11.00 68.78 11.78L68.78 11.78L68.78 11.78Q69.21 12.56 70.25 12.56L70.25 12.56L70.25 12.56Q70.99 12.56 71.48 12.06L71.48 12.06L71.48 12.06Q71.97 11.55 71.97 10.53L71.97 10.53L71.97 8.96L71.97 8.96Q71.97 7.93 71.48 7.43L71.48 7.43L71.48 7.43Q70.99 6.92 70.25 6.92L70.25 6.92L70.25 6.92Q69.21 6.92 68.78 7.70L68.78 7.70L68.78 7.70Q68.35 8.48 68.35 9.74ZM74.72 9.74L74.72 9.74L74.72 9.74Q74.72 8.05 75.57 7.04L75.57 7.04L75.57 7.04Q76.42 6.04 78.00 6.04L78.00 6.04L78.00 6.04Q79.31 6.04 80.18 6.96L80.18 6.96L80.18 6.96Q81.04 7.88 81.04 9.89L81.04 9.89L81.04 9.89Q81.04 10.20 80.76 10.20L80.76 10.20L76.00 10.20L76.00 10.20Q76.11 11.52 76.71 12.03L76.71 12.03L76.71 12.03Q77.30 12.55 78.05 12.55L78.05 12.55L78.05 12.55Q78.85 12.55 79.27 12.28L79.27 12.28L79.27 12.28Q79.69 12.02 79.89 11.76L79.89 11.76L79.89 11.76Q80.11 11.47 80.32 11.65L80.32 11.65L80.72 12.00L80.72 12.00Q80.88 12.13 80.72 12.37L80.72 12.37L80.72 12.37Q80.59 12.57 79.98 13.01L79.98 13.01L79.98 13.01Q79.37 13.45 78.05 13.45L78.05 13.45L78.05 13.45Q76.34 13.45 75.53 12.44L75.53 12.44L75.53 12.44Q74.72 11.44 74.72 9.74ZM75.97 9.31L75.97 9.31L79.83 9.31L79.83 9.31Q79.80 8.35 79.34 7.63L79.34 7.63L79.34 7.63Q78.87 6.91 77.97 6.91L77.97 6.91L77.97 6.91Q77.18 6.91 76.62 7.44L76.62 7.44L76.62 7.44Q76.07 7.97 75.97 9.31ZM83.51 13.33L82.93 13.33L82.93 13.33Q82.62 13.33 82.62 13.02L82.62 13.02L82.62 6.46L82.62 6.46Q82.62 6.15 82.93 6.15L82.93 6.15L83.50 6.15L83.50 6.15Q83.81 6.15 83.81 6.46L83.81 6.46L83.81 7.28L83.84 7.28L83.84 7.28Q84.16 6.67 84.61 6.35L84.61 6.35L84.61 6.35Q85.05 6.04 85.72 6.04L85.72 6.04L85.72 6.04Q86.15 6.04 86.33 6.11L86.33 6.11L86.33 6.11Q86.49 6.17 86.45 6.32L86.45 6.32L86.29 6.88L86.29 6.88Q86.26 7 86.11 6.97L86.11 6.97L86.11 6.97Q85.87 6.92 85.66 6.92L85.66 6.92L85.66 6.92Q84.86 6.92 84.34 7.65L84.34 7.65L84.34 7.65Q83.82 8.37 83.82 9.61L83.82 9.61L83.82 13.02L83.82 13.02Q83.82 13.33 83.51 13.33L83.51 13.33Z"></path></g><defs data-v-423bf9ae=""><linearGradient data-v-423bf9ae="" gradientTransform="rotate(25)" id="18c4aee3-658f-4fe8-8219-d2ac62bed9ef" x1="0%" y1="0%" x2="100%" y2="0%"><stop data-v-423bf9ae="" offset="0%" style="stop-color: rgb(8, 199, 214); stop-opacity: 1;"></stop><stop data-v-423bf9ae="" offset="100%" style="stop-color: rgb(2, 2, 62); stop-opacity: 1;"></stop></linearGradient></defs><g data-v-423bf9ae="" id="bfc69574-6cb2-4cd8-a79c-b74c911f642c" transform="matrix(1.055186152458191,0,0,1.055186152458191,-6.786303997039795,-7.405783653259277)" stroke="none" fill="url(#18c4aee3-658f-4fe8-8219-d2ac62bed9ef)"><path d="M50 7.353L6.973 25.177v49.646L50 92.646l4.78-1.98v-19.83l13.213-5.473v19.83l.061-.025 12.637 5.236V70.535l-.006-.004v-.002l1.196-.492v9.404l11.146-4.619V25.177L50 7.353zm27.782 73.604c-.382 0-.692-.432-.692-.969 0-.529.311-.963.692-.963.38 0 .688.434.688.963.001.537-.308.969-.688.969z"></path></g><!----></svg>